<?xml version="1.0" standalone="no"?>
<!DOCTYPE svg PUBLIC "-//W3C//DTD SVG 20010904//EN"
 "http://www.w3.org/TR/2001/REC-SVG-20010904/DTD/svg10.dtd">
<svg version="1.0" xmlns="http://www.w3.org/2000/svg"
 width="347.000000pt" height="617.000000pt" viewBox="0 0 347.000000 617.000000"
 preserveAspectRatio="xMidYMid meet">

<g transform="translate(0.000000,617.000000) scale(0.100000,-0.100000)"
fill="#000000" stroke="none">
<path d="M0 5028 l0 -1143 64 0 c79 0 103 -18 151 -117 37 -75 56 -156 35
-143 -9 5 -11 4 -6 -4 4 -6 11 -9 16 -6 14 8 21 -26 30 -135 5 -58 16 -127 24
-155 31 -96 57 -255 67 -417 6 -90 12 -183 15 -208 6 -56 -3 -69 -52 -80 -29
-7 -44 -5 -66 8 -15 9 -28 19 -28 22 0 4 -13 20 -29 36 -42 43 -164 271 -156
292 3 9 2 13 -2 8 -4 -4 -20 19 -35 51 l-26 58 -1 -1547 -1 -1548 1735 0 1735
0 0 1174 0 1174 -32 79 c-29 73 -32 86 -32 203 -1 95 3 134 15 160 l16 35 16
-65 c17 -65 17 -63 11 150 -4 118 -6 224 -4 235 1 11 4 696 6 1523 l5 1502
-1736 0 -1735 0 0 -1142z m1638 82 c10 0 33 -13 52 -28 79 -65 107 -67 73 -7
-27 50 -20 59 17 20 30 -32 163 -115 184 -115 10 0 13 5 9 18 -6 15 -5 16 12
2 17 -14 18 -13 11 15 l-7 30 23 -26 c43 -50 147 -60 241 -25 84 32 88 32 54
1 -31 -29 -36 -51 -9 -40 9 4 40 14 67 22 28 8 55 19 60 23 6 5 32 18 58 29
l47 20 -25 -36 c-13 -20 -23 -38 -22 -39 1 -2 69 4 150 13 109 12 154 13 170
5 12 -6 49 -16 82 -23 94 -18 203 -77 291 -159 67 -61 86 -90 137 -211 74
-174 81 -213 82 -459 0 -225 -12 -345 -46 -461 l-19 -67 -113 29 c-135 34
-158 37 -392 45 -206 8 -341 -4 -475 -43 -47 -13 -96 -34 -109 -46 -12 -12
-38 -52 -57 -89 -40 -79 -31 -77 -209 -53 -60 8 -113 15 -117 15 -5 0 -8 7 -8
15 0 21 -46 112 -78 154 -68 91 -368 151 -757 151 -274 0 -355 -15 -432 -77
-23 -19 -45 -43 -48 -54 -9 -28 -53 -25 -59 4 -2 12 -9 46 -15 75 -20 96 -13
187 24 327 18 71 32 131 31 132 -2 2 -16 -7 -31 -19 -27 -21 -27 -19 14 60 24
44 50 83 59 86 9 3 1 4 -18 2 -19 -3 -43 -7 -52 -11 -19 -7 -18 10 4 130 34
181 222 484 361 579 63 43 196 101 257 111 89 15 279 6 305 -15 16 -13 136
-53 141 -47 7 7 -17 50 -33 60 -7 4 -13 12 -13 17 0 5 25 -2 55 -16 31 -13 63
-24 73 -24z m-258 -1469 c128 -14 247 -46 279 -74 62 -57 84 -204 46 -312 -36
-105 -167 -360 -196 -383 -41 -33 -240 -48 -439 -34 -129 10 -148 13 -213 45
-79 37 -132 84 -153 133 -24 57 -34 161 -34 349 -1 250 8 268 145 286 80 10
433 4 565 -10z m1726 -110 c134 -32 163 -64 154 -171 -2 -29 -125 -401 -147
-445 -48 -95 -132 -157 -239 -176 -76 -13 -300 -7 -349 9 -16 6 -56 18 -87 27
-115 31 -151 93 -167 282 -5 57 -13 98 -21 103 -8 5 -10 21 -6 46 3 22 8 72
12 113 6 73 14 91 64 153 27 34 74 56 145 67 111 18 138 19 350 16 162 -2 217
-7 291 -24z m-2633 -131 c7 0 27 -13 45 -29 30 -28 32 -35 32 -93 0 -162 30
-291 87 -380 15 -24 26 -47 25 -51 -1 -5 2 -6 7 -3 5 4 15 0 23 -7 27 -26 88
-58 156 -81 107 -37 231 -50 415 -44 173 6 214 16 309 75 63 39 157 186 227
354 43 103 83 141 156 147 63 5 137 -12 160 -38 18 -20 22 -118 7 -194 -6 -27
-8 -54 -6 -60 2 -6 6 -54 9 -106 10 -182 24 -178 22 7 -2 94 0 170 5 167 4 -3
8 -15 8 -26 0 -45 34 -186 56 -233 35 -73 107 -117 258 -157 122 -32 378 -32
495 0 46 13 95 30 108 39 l25 17 -6 -35 c-13 -62 -38 -173 -58 -254 -11 -44
-23 -96 -28 -115 -10 -49 -67 -212 -103 -295 -41 -96 -129 -225 -238 -350 -88
-99 -135 -140 -90 -76 12 16 21 33 21 38 -1 10 -32 -28 -72 -87 l-30 -45 6 35
c5 31 2 28 -23 -23 -29 -58 -48 -87 -35 -54 13 36 -6 15 -24 -25 -10 -24 -36
-64 -58 -89 -21 -25 -44 -55 -51 -65 -11 -17 -12 -15 -12 15 -1 44 -9 36 -16
-15 -2 -21 -12 -56 -22 -77 -16 -37 -17 -37 -28 -17 -11 20 -14 19 -54 -34
-23 -31 -43 -56 -44 -56 -1 0 -1 19 1 42 l3 43 -25 -29 c-21 -26 -24 -27 -28
-10 -3 15 -7 12 -21 -15 -9 -19 -17 -40 -17 -48 0 -7 -4 -13 -10 -13 -5 0 -10
17 -10 38 -1 38 -32 88 -48 78 -5 -3 -12 -18 -15 -33 -3 -16 -12 -37 -20 -47
-14 -19 -15 -19 -15 5 0 32 -53 114 -63 97 -4 -7 -6 -15 -4 -18 2 -4 -2 -26
-10 -51 l-14 -44 0 38 c-1 41 -25 107 -39 107 -4 0 -16 -18 -26 -40 -19 -43
-36 -53 -36 -20 0 10 -5 31 -12 45 l-12 26 -13 -23 c-7 -13 -12 -30 -13 -39 0
-8 -7 -24 -15 -35 -15 -18 -15 -15 -13 39 3 55 2 57 -12 37 -34 -50 -69 -85
-70 -70 0 9 -12 1 -30 -20 l-29 -35 -1 40 -1 40 -38 -42 c-42 -47 -56 -54 -48
-23 3 11 1 20 -4 20 -5 0 -9 -4 -9 -10 0 -5 -4 -10 -10 -10 -5 0 -10 15 -10
34 0 19 -4 38 -10 41 -5 3 -10 -3 -10 -14 0 -12 -7 -21 -15 -21 -9 0 -18 -7
-21 -15 -9 -23 -24 -7 -24 27 0 26 -2 29 -15 18 -13 -11 -16 -8 -21 19 -5 24
-9 29 -20 20 -7 -5 -16 -25 -20 -42 l-7 -32 -14 33 c-16 39 -26 42 -17 6 5
-19 4 -25 -5 -20 -6 4 -11 15 -11 24 -1 9 -14 44 -30 77 -28 59 -28 60 -36 31
-6 -27 -8 -28 -20 -11 -8 11 -14 25 -14 32 0 8 -7 30 -15 51 -11 25 -18 33
-24 24 -5 -9 -14 2 -25 32 -10 25 -22 48 -27 51 -5 4 -5 -5 1 -20 6 -15 10
-38 9 -53 0 -28 -13 1 -59 138 l-18 55 -2 -55 -1 -55 -34 98 c-18 54 -36 101
-40 105 -4 4 -4 -18 -1 -48 9 -71 -5 -53 -40 55 -27 81 -73 175 -86 175 -9 0
3 -33 29 -80 25 -46 45 -112 31 -104 -14 9 -168 246 -201 309 -50 96 -107 318
-107 415 0 26 -7 91 -16 146 -8 54 -17 162 -20 239 -3 77 -10 203 -16 280 -12
146 -13 250 -3 323 6 38 8 41 21 27 9 -8 21 -15 27 -15z m2967 -157 c0 -5 -4
-24 -9 -43 -5 -19 -12 -62 -14 -95 -11 -134 -139 -444 -218 -530 -23 -24 -46
-43 -51 -42 -6 1 -13 -4 -16 -12 -3 -8 0 -11 7 -7 6 4 11 4 11 0 0 -6 -69
-104 -74 -104 -5 0 22 150 33 184 5 17 12 49 16 70 4 22 17 54 31 71 29 38 87
163 118 253 13 37 35 96 49 132 14 36 28 77 31 92 6 26 13 29 74 37 6 0 12 -2
12 -6z m-2996 -855 c21 -106 43 -212 51 -235 7 -23 12 -53 11 -67 -2 -14 1
-23 5 -20 5 3 9 -3 9 -13 0 -10 18 -53 40 -96 44 -86 47 -95 25 -77 -10 9 -15
9 -15 1 0 -6 5 -12 10 -12 6 -1 14 -2 20 -3 15 -2 60 -68 53 -79 -3 -6 -1 -7
4 -4 7 4 44 -43 88 -111 43 -64 86 -129 97 -144 22 -33 78 -127 78 -133 0 -1
-9 -1 -20 2 -11 3 -20 10 -19 17 1 6 1 18 0 26 -1 12 -4 11 -12 -3 -8 -13 -7
-22 1 -32 8 -10 7 -16 -6 -23 -11 -6 -13 -11 -5 -16 6 -4 14 -1 17 7 11 29 51
12 88 -36 37 -49 44 -63 24 -51 -7 4 -8 3 -4 -5 4 -6 11 -9 16 -6 4 3 27 -21
51 -53 86 -114 133 -161 164 -166 8 -1 40 -27 72 -57 32 -31 69 -62 83 -69 67
-37 235 -61 313 -45 27 5 27 5 -10 -28 -54 -49 -79 -61 -87 -41 -3 8 -2 12 3
9 5 -3 12 -1 16 5 4 6 11 7 17 4 7 -4 8 -2 4 4 -4 7 -15 12 -24 13 -14 0 -13
2 3 8 14 6 3 8 -34 9 -29 0 -48 -4 -41 -8 8 -5 7 -9 -4 -13 -9 -4 -15 -1 -13
6 1 8 -9 11 -28 10 -25 -2 -27 -1 -10 7 11 5 18 9 15 10 -26 8 -46 7 -57 -1
-7 -6 -17 -8 -23 -4 -5 3 -10 1 -10 -4 0 -6 4 -11 8 -11 5 0 9 -7 9 -15 0 -8
-2 -13 -5 -10 -2 2 -12 -4 -21 -13 -9 -10 -12 -12 -6 -4 5 8 9 26 10 40 0 19
5 27 18 26 9 -1 17 2 17 7 0 5 -14 9 -31 9 -16 0 -28 -3 -26 -7 3 -5 -8 -9
-24 -10 -19 -1 -29 3 -29 12 0 7 -3 22 -7 32 -6 16 -5 16 10 5 8 -8 13 -20 10
-28 -7 -18 4 -18 23 1 14 13 14 15 -1 15 -8 0 -18 7 -22 16 -3 8 -11 13 -17
11 -15 -6 -52 20 -43 29 8 8 -11 34 -24 34 -5 0 -9 -5 -9 -11 0 -5 4 -8 9 -4
5 3 12 1 16 -5 3 -5 -3 -10 -14 -10 -20 0 -26 16 -22 60 1 12 -1 11 -12 -3 -9
-10 -21 -15 -31 -11 -9 3 -16 2 -16 -4 0 -5 -7 -12 -15 -16 -11 -4 -15 1 -14
17 0 12 3 16 6 9 2 -6 9 -10 14 -6 16 9 -1 24 -27 24 -15 0 -24 6 -24 16 0 11
-5 14 -16 10 -18 -7 -44 10 -44 27 0 5 10 2 22 -9 20 -18 21 -18 15 -1 -4 10
-7 31 -7 46 0 23 -4 27 -27 27 -36 -1 -53 -13 -53 -35 0 -14 -6 -17 -25 -14
-42 9 -50 28 -30 72 9 22 15 45 12 53 -3 8 -6 5 -7 -7 0 -11 -12 -40 -26 -65
-14 -25 -23 -36 -19 -25 4 17 2 16 -16 -5 -11 -14 -18 -20 -16 -15 3 6 1 17
-4 25 -8 13 -10 13 -19 0 -9 -13 -12 -13 -21 3 -10 18 -12 18 -26 -2 -8 -12
-18 -19 -23 -16 -5 3 -11 1 -14 -4 -4 -5 -1 -13 5 -17 7 -4 9 -3 6 4 -5 6 0 8
13 5 11 -3 20 0 20 6 0 8 5 9 19 2 10 -6 21 -7 25 -4 3 3 6 1 6 -6 0 -7 -10
-10 -25 -7 -14 3 -23 1 -20 -5 3 -5 -1 -6 -10 -2 -10 3 -20 0 -24 -6 -14 -22
-162 162 -160 197 1 16 2 16 6 0 2 -10 9 -18 14 -18 5 0 9 -6 9 -12 1 -7 12
-26 26 -43 18 -22 23 -24 18 -10 -5 18 -4 18 15 -3 11 -13 17 -30 14 -39 -4
-11 -3 -14 6 -9 7 5 10 2 9 -5 -2 -8 8 -14 24 -14 15 -1 24 3 21 9 -3 5 -1 6
5 2 8 -5 10 -2 6 9 -6 14 -8 14 -24 0 -23 -21 -33 -19 -20 5 6 11 15 18 21 15
5 -4 12 1 15 9 3 9 11 13 17 9 6 -3 7 -1 3 5 -8 14 -36 16 -36 3 0 -10 -14 -9
-42 4 -10 4 -16 11 -13 16 3 4 -4 6 -15 4 -11 -2 -20 0 -20 6 0 5 5 9 11 9 5
0 8 4 5 9 -3 5 6 12 19 15 14 4 23 10 21 15 -7 10 18 33 27 26 4 -3 4 -2 1 3
-3 4 -9 7 -14 7 -4 0 -18 11 -30 25 l-22 25 17 -28 c9 -16 14 -31 11 -35 -11
-10 -36 -11 -36 -1 0 5 5 9 11 9 6 0 1 14 -11 30 -12 17 -28 30 -37 30 -11 0
-14 7 -11 25 3 14 1 28 -3 31 -5 3 -8 -19 -6 -50 1 -30 5 -52 10 -49 4 2 7 -1
7 -7 0 -6 5 -8 11 -4 8 4 7 9 -2 15 -7 4 -10 11 -6 16 13 13 26 -19 17 -43
-11 -28 -3 -36 21 -23 26 13 24 -3 -2 -19 -18 -11 -23 -11 -35 5 -7 10 -14 22
-14 26 0 10 -47 57 -56 57 -3 0 1 -12 11 -26 9 -14 14 -28 12 -30 -6 -6 -87
115 -116 174 -13 24 -20 50 -17 58 3 8 2 12 -4 9 -13 -8 -83 144 -113 245 -57
196 -62 226 -62 410 l0 175 49 103 c27 56 52 102 56 102 4 0 23 -87 44 -192z
m1852 -1230 c-7 -13 -30 -54 -49 -92 -47 -91 -199 -262 -290 -327 -85 -61
-149 -91 -171 -83 -9 3 -16 1 -16 -5 0 -6 -10 -11 -22 -11 -23 0 -23 1 2 13
14 8 24 19 22 25 -1 7 2 12 8 12 5 0 10 -7 10 -16 0 -11 6 -14 23 -8 12 3 24
11 25 15 2 5 10 9 18 9 19 0 100 59 96 71 -1 5 1 8 5 8 20 -3 34 2 28 11 -5 9
6 14 26 12 3 0 4 20 2 44 -2 28 0 43 6 39 6 -3 8 -12 4 -20 -4 -11 -1 -13 13
-8 17 6 18 5 5 -13 -8 -10 -3 -8 11 6 22 21 24 27 12 40 -8 10 -10 21 -4 30 5
8 6 18 3 23 -3 5 -9 4 -13 -2 -3 -7 -20 -14 -36 -16 -23 -4 -19 0 21 21 28 15
64 38 80 51 83 68 145 128 151 147 8 26 23 46 35 46 5 0 3 -10 -5 -22z m-1259
-53 c5 -24 7 -42 2 -40 -4 3 -10 -1 -13 -7 -5 -10 -7 -10 -12 1 -5 9 -11 3
-21 -20 -10 -25 -16 -30 -23 -20 -5 9 -3 20 6 29 21 20 12 37 -19 37 -16 -1
-27 5 -27 13 0 7 -7 12 -16 10 -10 -2 -19 2 -21 7 -2 6 6 11 17 12 11 1 20 -2
20 -7 0 -8 58 -26 73 -22 4 1 7 -2 7 -8 0 -5 5 -10 11 -10 9 0 7 16 -8 58 -3
6 -1 12 4 12 5 0 14 -20 20 -45z m28 25 c3 -5 -1 -10 -9 -10 -9 0 -16 5 -16
10 0 6 4 10 9 10 6 0 13 -4 16 -10z m-182 -29 c5 -1 5 -10 2 -21 -4 -13 -1
-22 9 -26 21 -8 28 -33 8 -29 -9 1 -16 9 -14 16 3 11 1 11 -9 2 -10 -10 -9
-17 6 -33 14 -16 20 -17 27 -8 6 10 8 10 8 0 0 -9 7 -11 23 -7 21 7 21 6 3 -7
-16 -12 -17 -17 -5 -24 8 -5 17 -9 22 -9 4 0 8 -4 9 -10 3 -15 48 -48 56 -41
3 4 0 11 -7 15 -9 6 -5 9 13 9 25 0 26 -2 11 -18 -14 -16 -11 -30 7 -30 5 0 6
5 2 12 -4 7 -3 8 4 4 7 -4 12 -1 12 9 0 14 49 43 75 43 6 1 12 10 15 21 4 15
9 18 19 11 12 -7 13 -11 1 -25 -7 -9 -19 -14 -27 -11 -7 3 -13 1 -13 -4 0 -6
-9 -10 -21 -10 -15 0 -19 -4 -15 -16 5 -14 4 -15 -8 -5 -11 9 -15 7 -19 -10
-4 -15 -2 -19 9 -15 8 3 14 1 14 -4 0 -5 7 -6 17 -3 11 4 14 3 9 -6 -5 -8 -18
-10 -32 -7 -37 10 -29 -1 19 -25 23 -12 44 -25 47 -29 7 -9 52 -33 140 -73 90
-42 155 -64 235 -82 33 -7 51 -13 39 -14 -26 -1 -162 34 -211 55 -144 60 -282
141 -394 229 -105 84 -180 156 -173 167 3 5 9 6 14 3 5 -3 11 -1 14 3 3 5 15
8 28 6 13 -1 27 -3 31 -3z m87 -41 c0 -5 -4 -10 -10 -10 -5 0 -10 5 -10 10 0
6 5 10 10 10 6 0 10 -4 10 -10z m-28 -25 c3 -13 2 -22 -2 -20 -11 7 -20 45
-10 45 4 0 10 -11 12 -25z m151 18 c-7 -2 -19 -2 -25 0 -7 3 -2 5 12 5 14 0
19 -2 13 -5z m-63 -72 c-1 -13 -30 34 -30 48 0 9 7 3 15 -13 8 -15 15 -31 15
-35z m27 37 c-3 -8 -6 -5 -6 6 -1 11 2 17 5 13 3 -3 4 -12 1 -19z m68 12 c3
-5 -1 -10 -9 -10 -8 0 -18 5 -21 10 -3 6 1 10 9 10 8 0 18 -4 21 -10z m75 -24
c0 -3 -4 -8 -10 -11 -5 -3 -10 -1 -10 4 0 6 5 11 10 11 6 0 10 -2 10 -4z
m-207 -26 c-3 -12 -8 -19 -11 -16 -5 6 5 36 12 36 2 0 2 -9 -1 -20z m157 -2
c0 -6 -3 -8 -7 -5 -3 4 -13 1 -22 -6 -14 -11 -14 -10 -2 6 15 20 31 22 31 5z
m57 -20 c-3 -7 -5 -2 -5 12 0 14 2 19 5 13 2 -7 2 -19 0 -25z m-137 8 c0 -3
-4 -8 -10 -11 -5 -3 -10 -1 -10 4 0 6 5 11 10 11 6 0 10 -2 10 -4z m190 -11
c0 -2 -7 -5 -15 -9 -9 -3 -15 0 -15 9 0 9 6 12 15 9 8 -4 15 -7 15 -9z m-226
-4 c4 -5 -3 -7 -14 -4 -23 6 -26 13 -6 13 8 0 17 -4 20 -9z m244 -21 c-7 -10
-14 -18 -15 -16 -6 6 9 36 18 36 5 0 4 -9 -3 -20z m-98 -11 c0 8 2 12 5 10 6
-7 -6 -49 -14 -49 -3 0 -7 12 -8 27 -1 19 1 22 8 12 7 -12 9 -12 9 0z m127
-15 c-9 -9 -28 6 -21 18 4 6 10 6 17 -1 6 -6 8 -13 4 -17z m-100 -31 c-3 -10
-5 -4 -5 12 0 17 2 24 5 18 2 -7 2 -21 0 -30z m773 33 c0 -3 -4 -8 -10 -11 -5
-3 -10 -1 -10 4 0 6 5 11 10 11 6 0 10 -2 10 -4z m-34 -14 c-2 -4 -22 -8 -43
-9 -33 -1 -34 0 -13 7 33 11 62 12 56 2z m98 -8 c5 -14 4 -15 -8 -5 -9 7 -24
10 -37 6 -14 -5 -19 -4 -15 4 11 17 53 13 60 -5z m-902 -26 c-8 -8 -9 -4 -5
13 4 13 8 18 11 10 2 -7 -1 -18 -6 -23z m128 28 c0 -2 -11 -6 -25 -8 -14 -3
-25 -1 -25 3 0 5 11 9 25 9 14 0 25 -2 25 -4z m615 -19 c11 -2 0 -2 -24 0 -27
3 -41 1 -37 -5 4 -6 -3 -8 -16 -5 -19 4 -20 3 -8 -6 13 -9 12 -11 -5 -9 -43 3
-55 -2 -48 -19 6 -17 5 -17 -11 0 -17 17 -20 17 -34 3 -13 -12 -13 -18 -4 -28
7 -7 12 -21 12 -33 0 -14 -3 -16 -9 -7 -7 11 -11 11 -24 -2 -19 -20 -34 -21
-18 -2 15 18 -1 30 -29 21 -11 -4 -20 -2 -20 4 0 6 11 11 24 11 16 0 35 14 59
43 32 39 38 42 73 39 22 -2 50 1 64 6 14 5 27 6 30 2 3 -5 14 -10 25 -13z m78
-2 c-3 -9 -8 -14 -10 -11 -3 3 -2 9 2 15 9 16 15 13 8 -4z m-713 -5 c0 -5 -5
-10 -11 -10 -5 0 -7 5 -4 10 3 6 8 10 11 10 2 0 4 -4 4 -10z m120 6 c0 -2 -7
-6 -15 -10 -8 -3 -15 -1 -15 4 0 6 7 10 15 10 8 0 15 -2 15 -4z m73 -11 c-3
-9 -8 -14 -10 -11 -3 3 -2 9 2 15 9 16 15 13 8 -4z m497 1 c0 -19 -26 -40 -35
-26 -3 5 1 10 10 10 11 0 15 5 11 15 -3 8 -1 15 4 15 6 0 10 -6 10 -14z m53
-13 c-5 -12 -3 -14 8 -8 11 7 11 5 -1 -11 -36 -47 -57 -57 -57 -29 0 8 4 12 9
9 15 -9 35 20 30 44 -3 17 -1 23 6 18 6 -4 8 -14 5 -23z m-497 -2 c-4 -5 0
-12 6 -14 8 -3 6 -6 -4 -6 -18 -1 -24 10 -11 22 9 10 15 8 9 -2z m-211 -11 c3
-5 -1 -10 -9 -10 -8 0 -18 5 -21 10 -3 6 1 10 9 10 8 0 18 -4 21 -10z m288
-11 c3 -12 1 -19 -5 -17 -13 5 -20 38 -8 38 4 0 10 -9 13 -21z m277 9 c0 -9 4
-8 11 2 7 10 9 11 7 2 -2 -8 -7 -13 -11 -13 -4 1 -14 1 -23 1 -8 0 -12 5 -9
10 9 14 25 12 25 -2z m-41 -15 c0 -11 -3 -13 -6 -5 -2 6 -10 9 -15 6 -7 -4 -8
-2 -4 4 11 18 26 14 25 -5z m91 3 c0 -3 -4 -8 -10 -11 -5 -3 -10 -1 -10 4 0 6
5 11 10 11 6 0 10 -2 10 -4z m-630 -10 c0 -2 -7 -7 -16 -10 -8 -3 -12 -2 -9 4
6 10 25 14 25 6z m157 -18 c-3 -8 -6 -5 -6 6 -1 11 2 17 5 13 3 -3 4 -12 1
-19z m340 -10 c-3 -7 -5 -2 -5 12 0 14 2 19 5 13 2 -7 2 -19 0 -25z m103 12
c0 -5 -2 -10 -4 -10 -3 0 -8 5 -11 10 -3 6 -1 10 4 10 6 0 11 -4 11 -10z
m-137 -15 c-3 -9 -8 -14 -10 -11 -3 3 -2 9 2 15 9 16 15 13 8 -4z m-443 -17
c0 -6 -6 -5 -15 2 -8 7 -15 14 -15 16 0 2 7 1 15 -2 8 -4 15 -11 15 -16z m560
-44 c0 -3 -7 -1 -15 6 -8 7 -15 17 -15 22 0 5 7 3 15 -6 8 -8 15 -18 15 -22z
m-227 -4 c-3 -12 -8 -19 -11 -16 -5 6 5 36 12 36 2 0 2 -9 -1 -20z m87 0 c0
-5 -5 -10 -11 -10 -5 0 -7 5 -4 10 3 6 8 10 11 10 2 0 4 -4 4 -10z m-20 -24
c0 -2 -7 -6 -15 -10 -8 -3 -15 -1 -15 4 0 6 7 10 15 10 8 0 15 -2 15 -4z m-7
-37 c41 -1 41 -1 -12 -10 -30 -5 -60 -7 -65 -5 -6 2 -1 5 11 5 13 1 21 6 19
14 -1 6 -1 9 1 5 3 -5 23 -9 46 -9z"/>
<path d="M1324 5094 c-18 -14 -18 -15 4 -4 12 6 22 13 22 15 0 8 -5 6 -26 -11z"/>
<path d="M1135 5080 c-19 -8 -19 -9 3 -9 12 -1 22 4 22 9 0 6 -1 10 -2 9 -2 0
-12 -4 -23 -9z"/>
<path d="M706 4862 c-3 -5 1 -9 9 -9 8 0 12 4 9 9 -3 4 -7 8 -9 8 -2 0 -6 -4
-9 -8z"/>
<path d="M985 4217 c-97 -32 -159 -71 -236 -147 -55 -53 -69 -74 -76 -110 -10
-52 4 -64 40 -33 23 20 45 31 140 69 112 44 316 52 479 19 73 -15 222 -80 274
-120 18 -14 37 -25 42 -25 6 0 24 -13 42 -30 18 -16 34 -30 36 -30 12 0 1 91
-15 125 -28 62 -64 99 -159 161 -149 98 -246 133 -397 140 -86 4 -110 1 -170
-19z"/>
<path d="M2813 4089 c-83 -10 -209 -49 -268 -84 -101 -59 -225 -190 -225 -237
0 -15 4 -16 27 -7 15 5 53 26 84 45 120 72 241 98 429 91 178 -6 249 -29 331
-104 56 -53 58 -53 69 -32 9 17 9 36 0 83 -25 120 -69 171 -184 219 -74 30
-158 39 -263 26z"/>
<path d="M1780 3858 c0 -7 -3 -24 -7 -37 -4 -16 -2 -22 4 -18 14 9 23 56 12
63 -5 3 -9 -1 -9 -8z"/>
<path d="M1062 3602 c-91 -33 -161 -122 -178 -226 -8 -52 7 -44 34 18 32 73
82 129 139 156 41 19 59 22 133 17 96 -5 145 -25 222 -89 46 -38 98 -124 98
-161 0 -10 4 -16 9 -13 16 10 0 99 -27 155 -17 33 -42 65 -67 82 -95 68 -263
96 -363 61z"/>
<path d="M1200 3472 c-69 -36 -104 -153 -75 -247 31 -97 107 -125 170 -62 45
45 59 97 50 191 -6 64 -11 80 -35 106 -32 35 -61 38 -110 12z m98 -34 c17 -17
15 -52 -6 -78 -15 -18 -20 -20 -29 -9 -11 14 -16 46 -14 82 1 20 31 23 49 5z
m-137 -221 c-10 -9 -11 -8 -5 6 3 10 9 15 12 12 3 -3 0 -11 -7 -18z"/>
<path d="M2644 3489 c-52 -7 -140 -54 -198 -108 -45 -41 -96 -171 -68 -171 5
0 22 24 37 53 34 62 108 137 160 161 20 10 61 20 91 23 47 5 62 2 118 -26 73
-36 115 -84 143 -165 l18 -51 3 64 c4 77 -9 111 -56 152 -63 56 -152 80 -248
68z"/>
<path d="M2450 3450 c-9 -6 -10 -10 -3 -10 6 0 15 5 18 10 8 12 4 12 -15 0z"/>
<path d="M2329 3383 l-24 -28 30 25 c17 14 32 26 34 28 2 1 0 2 -6 2 -5 0 -20
-12 -34 -27z"/>
<path d="M2590 3383 c-83 -30 -138 -206 -94 -299 29 -61 83 -68 137 -18 72 66
91 188 46 287 -14 32 -51 44 -89 30z m55 -43 c8 -27 -22 -82 -43 -78 -24 4
-28 55 -6 79 22 24 41 24 49 -1z"/>
<path d="M2080 3195 c0 -2 6 -8 13 -14 10 -8 14 -7 14 2 0 8 -6 14 -14 14 -7
0 -13 -1 -13 -2z"/>
<path d="M2187 2627 c-6 -89 -28 -130 -88 -172 -47 -33 -106 -95 -90 -95 36 0
154 98 181 150 24 47 32 127 16 165 -12 29 -13 26 -19 -48z"/>
<path d="M1722 2504 c-21 -14 -32 -42 -13 -30 5 4 12 0 15 -6 3 -7 4 -5 3 6
-3 27 26 28 65 2 39 -26 68 -38 68 -28 0 4 -26 21 -59 39 -53 30 -60 31 -79
17z"/>
<path d="M962 2306 c-52 -56 -65 -100 -47 -161 8 -25 14 -46 14 -48 0 -1 3
-26 7 -54 7 -53 24 -74 24 -30 0 25 43 121 58 131 12 7 25 -8 57 -69 40 -74
131 -189 196 -248 63 -58 224 -146 299 -165 128 -32 202 -43 276 -41 83 2 212
31 289 64 53 23 344 317 361 364 l12 34 13 -24 c7 -13 16 -37 20 -54 5 -24 7
-25 8 -7 1 12 6 22 11 22 6 0 8 -22 5 -57 l-6 -58 16 40 c9 22 20 58 25 80 l9
40 -2 -47 c-2 -55 6 -62 22 -17 17 50 13 130 -8 165 -31 51 -156 87 -138 40 5
-11 -1 -12 -31 -4 -20 6 -45 14 -54 19 -14 7 -18 6 -18 -6 0 -19 -2 -19 -47 0
-44 18 -53 19 -53 2 0 -11 -11 -12 -44 -7 -24 3 -52 5 -62 4 -10 -2 -26 2 -36
7 -16 9 -18 5 -18 -26 0 -41 20 -76 57 -101 25 -16 26 -16 20 5 -6 25 2 27 29
6 21 -16 69 -21 59 -6 -11 19 160 -6 195 -28 20 -13 13 -18 -55 -36 -44 -11
-112 -15 -255 -16 -166 0 -400 14 -419 26 -3 2 -74 11 -156 20 -83 9 -229 32
-325 51 -96 20 -185 37 -198 38 -41 5 -34 14 15 21 26 4 63 14 82 21 44 18 47
18 26 -6 -16 -17 -16 -20 -2 -20 8 0 36 9 62 20 l46 20 -6 -21 c-6 -17 -4 -20
12 -15 42 12 116 26 120 22 3 -2 -5 -7 -16 -11 -12 -3 -21 -11 -21 -17 0 -16
132 -3 169 17 32 16 44 4 14 -14 -15 -8 -11 -10 20 -11 37 0 109 29 122 50 8
13 -41 13 -66 0 -15 -9 -19 -7 -19 6 0 14 -8 16 -50 12 -47 -5 -50 -4 -44 15
6 18 3 19 -31 13 -20 -4 -44 -10 -53 -12 -12 -4 -11 0 5 14 l22 19 -46 7 c-25
3 -61 6 -79 6 -19 0 -34 4 -34 8 0 5 -22 4 -50 -2 -54 -11 -70 -5 -50 19 17
21 2 19 -62 -5 -59 -22 -76 -20 -29 5 40 20 39 28 -1 20 -70 -15 -128 -54
-161 -107 -20 -32 -33 -45 -35 -35 -4 17 27 78 60 119 36 46 14 41 -30 -6z
m1338 -138 c0 -5 -9 -4 -20 2 -11 6 -20 12 -20 14 0 2 9 2 20 -1 11 -3 20 -9
20 -15z m-935 -93 c72 -9 177 -23 235 -30 370 -48 471 -54 664 -39 l78 6 -31
-46 c-17 -25 -36 -48 -41 -51 -6 -4 -43 -8 -83 -11 -39 -3 -99 -9 -132 -14
-87 -14 -295 -12 -405 4 -85 12 -139 28 -390 108 -77 24 -115 49 -135 87 l-14
28 62 -13 c34 -7 121 -20 192 -29z m-71 -127 c-4 -7 -3 -8 5 -4 6 4 8 12 5 18
-5 8 -1 9 12 4 10 -5 46 -16 79 -26 33 -10 92 -28 130 -40 109 -34 204 -42
417 -37 225 6 219 9 190 -76 -30 -85 -100 -121 -263 -133 -159 -13 -512 83
-419 114 7 3 10 0 6 -6 -3 -6 -1 -14 5 -18 8 -5 9 -3 4 6 -5 9 -2 10 14 5 13
-4 28 -1 36 5 12 10 18 10 30 0 13 -11 14 -10 9 4 -7 18 -25 21 -41 5 -8 -8
-17 -8 -33 1 -18 9 -28 9 -46 0 -27 -15 -58 -6 -51 15 4 9 1 12 -8 9 -30 -12
-155 96 -155 132 0 31 37 56 62 43 10 -5 15 -15 12 -21z"/>
<path d="M1242 1945 c-11 -13 -9 -14 10 -12 12 2 24 9 26 15 5 17 -20 14 -36
-3z"/>
<path d="M1320 1941 c0 -5 5 -13 10 -16 6 -3 10 -2 10 4 0 5 -4 13 -10 16 -5
3 -10 2 -10 -4z"/>
<path d="M1281 1922 c-1 -7 -5 -10 -11 -7 -5 3 -10 0 -10 -7 0 -9 -3 -9 -10 2
-5 8 -10 10 -10 4 0 -18 12 -24 31 -13 21 11 26 0 8 -18 -8 -8 -7 -13 2 -18 7
-5 10 -4 5 3 -3 6 4 18 16 26 17 12 19 16 6 16 -9 0 -19 6 -21 13 -4 9 -6 9
-6 -1z"/>
<path d="M1378 1923 c7 -3 16 -2 19 1 4 3 -2 6 -13 5 -11 0 -14 -3 -6 -6z"/>
<path d="M1393 1894 c-12 -12 -19 -25 -16 -28 4 -3 13 4 21 15 12 17 16 18 23
8 5 -8 9 -9 9 -4 0 27 -16 31 -37 9z"/>
<path d="M1335 1900 c3 -5 8 -10 11 -10 2 0 4 5 4 10 0 6 -5 10 -11 10 -5 0
-7 -4 -4 -10z"/>
<path d="M1451 1892 c-12 -4 -16 -23 -3 -21 24 4 34 -2 27 -18 -4 -13 -1 -12
15 5 24 25 31 27 48 10 8 -8 12 -8 12 -1 0 17 -29 24 -51 13 -11 -7 -19 -7
-19 -1 0 5 6 11 13 14 14 6 -25 5 -42 -1z"/>
<path d="M1350 1860 c0 -5 5 -10 11 -10 5 0 7 5 4 10 -3 6 -8 10 -11 10 -2 0
-4 -4 -4 -10z"/>
<path d="M1625 1850 c3 -6 13 -10 21 -10 8 0 14 -4 14 -9 0 -5 6 -11 13 -14
15 -6 17 27 2 40 -4 5 -5 2 -1 -4 9 -16 5 -16 -29 -3 -17 7 -24 7 -20 0z"/>
<path d="M2065 1850 c-3 -6 1 -7 9 -4 18 7 21 14 7 14 -6 0 -13 -4 -16 -10z"/>
<path d="M2105 1850 c3 -5 8 -10 11 -10 2 0 4 5 4 10 0 6 -5 10 -11 10 -5 0
-7 -4 -4 -10z"/>
<path d="M1401 1834 c0 -11 3 -14 6 -6 3 7 2 16 -1 19 -3 4 -6 -2 -5 -13z"/>
<path d="M1708 1843 c7 -3 16 -2 19 1 4 3 -2 6 -13 5 -11 0 -14 -3 -6 -6z"/>
<path d="M1900 1836 c7 -7 13 -7 20 0 6 6 3 10 -10 10 -13 0 -16 -4 -10 -10z"/>
<path d="M2000 1845 c0 -3 7 -14 16 -23 15 -14 16 -14 13 3 -4 17 -29 35 -29
20z"/>
<path d="M1501 1824 c0 -11 3 -14 6 -6 3 7 2 16 -1 19 -3 4 -6 -2 -5 -13z"/>
<path d="M1788 1818 c3 -13 12 -29 19 -36 11 -11 13 -11 13 2 0 9 -4 16 -10
16 -5 0 -10 9 -10 20 0 11 -4 20 -9 20 -5 0 -6 -10 -3 -22z"/>
<path d="M2094 1827 c3 -10 -3 -26 -14 -37 -11 -11 -15 -22 -10 -25 6 -4 10
-1 10 6 0 9 3 9 14 0 20 -17 27 20 9 50 -8 13 -12 16 -9 6z"/>
<path d="M1358 1823 c6 -2 9 -10 6 -15 -4 -7 -2 -8 5 -4 13 9 5 26 -12 25 -9
0 -8 -2 1 -6z"/>
<path d="M1561 1814 c-7 -8 -11 -17 -9 -20 3 -2 13 5 23 16 10 11 14 20 9 20
-5 -1 -15 -8 -23 -16z"/>
<path d="M1946 1815 c4 -8 8 -15 10 -15 2 0 4 7 4 15 0 8 -4 15 -10 15 -5 0
-7 -7 -4 -15z"/>
<path d="M1996 1803 c-6 -14 -5 -15 5 -6 7 7 10 15 7 18 -3 3 -9 -2 -12 -12z"/>
<path d="M1607 1784 c6 -15 23 -19 23 -5 0 5 -7 11 -14 14 -10 4 -13 1 -9 -9z"/>
<path d="M1721 1786 c-1 -12 -6 -16 -16 -13 -8 4 -17 2 -20 -4 -4 -5 -3 -9 2
-8 24 4 43 -3 43 -15 0 -23 15 -27 36 -11 13 11 15 15 4 13 -8 -2 -19 -7 -23
-13 -5 -5 -6 8 -3 30 4 26 3 33 -3 20 l-8 -20 -5 20 c-5 18 -6 18 -7 1z"/>
<path d="M1894 1787 c3 -10 6 -28 6 -40 0 -15 3 -18 11 -10 8 8 6 19 -6 39 -9
16 -14 21 -11 11z"/>
<path d="M2041 1784 c0 -11 3 -14 6 -6 3 7 2 16 -1 19 -3 4 -6 -2 -5 -13z"/>
<path d="M1410 1780 c-9 -6 -10 -10 -3 -10 6 0 15 5 18 10 8 12 4 12 -15 0z"/>
<path d="M1990 1765 c0 -7 30 -13 34 -7 3 4 -4 9 -15 9 -10 1 -19 0 -19 -2z"/>
<path d="M1807 1740 c-3 -11 -2 -20 3 -20 12 0 21 28 11 35 -5 2 -11 -4 -14
-15z"/>
<path d="M2035 1749 c-4 -6 -4 -13 -1 -16 3 -4 6 -1 6 6 0 8 6 11 16 7 8 -3
12 -2 9 4 -8 13 -22 13 -30 -1z"/>
<path d="M1510 1740 c-8 -5 -10 -10 -5 -10 6 0 17 5 25 10 8 5 11 10 5 10 -5
0 -17 -5 -25 -10z"/>
<path d="M1583 1706 c-3 -6 -3 -8 2 -4 4 4 14 3 22 -4 10 -8 17 -8 25 0 7 7
10 12 8 13 -31 6 -52 4 -57 -5z"/>
<path d="M1712 1699 c-7 -11 -11 -23 -9 -25 7 -7 29 24 25 36 -2 6 -9 1 -16
-11z"/>
<path d="M1841 1704 c0 -11 3 -14 6 -6 3 7 2 16 -1 19 -3 4 -6 -2 -5 -13z"/>
<path d="M1898 1700 c-24 -22 -23 -25 10 -27 15 0 19 1 9 4 -14 4 -16 8 -6 19
17 21 7 24 -13 4z"/>
<path d="M1652 1698 c3 -7 12 -14 22 -14 13 -2 13 -1 1 3 -8 2 -13 9 -10 14 4
5 1 9 -5 9 -7 0 -10 -6 -8 -12z"/>
<path d="M1800 1689 c0 -7 -12 -10 -30 -7 -16 3 -30 1 -30 -3 0 -16 56 -14 73
3 14 15 14 18 2 18 -8 0 -15 -5 -15 -11z"/>
<path d="M1965 1690 c-3 -5 -2 -10 4 -10 5 0 13 5 16 10 3 6 2 10 -4 10 -5 0
-13 -4 -16 -10z"/>
<path d="M1820 1670 c0 -13 11 -13 30 0 12 8 11 10 -7 10 -13 0 -23 -4 -23
-10z"/>
<path d="M1731 2186 c-17 -21 4 -30 29 -13 11 8 17 17 13 20 -11 11 -30 8 -42
-7z"/>
<path d="M2040 2192 c0 -16 32 -52 46 -52 11 0 9 7 -8 30 -21 29 -38 39 -38
22z"/>
<path d="M1484 1477 c40 -34 156 -68 253 -74 64 -4 104 0 178 17 52 12 95 25
95 29 0 3 -58 4 -129 3 -87 -3 -153 1 -207 11 -43 9 -103 18 -132 22 -29 3
-60 8 -70 11 -10 3 -5 -5 12 -19z"/>
<path d="M379 2443 c-13 -16 -12 -17 4 -4 9 7 17 15 17 17 0 8 -8 3 -21 -13z"/>
<path d="M311 2354 c0 -11 3 -14 6 -6 3 7 2 16 -1 19 -3 4 -6 -2 -5 -13z"/>
<path d="M426 2314 c-4 -9 -4 -19 -1 -22 3 -3 5 0 5 7 0 7 4 9 10 6 6 -3 7 1
4 9 -8 20 -10 20 -18 0z"/>
<path d="M370 2311 c0 -5 9 -7 20 -4 11 3 20 7 20 9 0 2 -9 4 -20 4 -11 0 -20
-4 -20 -9z"/>
<path d="M321 2264 c0 -11 3 -14 6 -6 3 7 2 16 -1 19 -3 4 -6 -2 -5 -13z"/>
<path d="M375 2250 c3 -5 8 -10 11 -10 2 0 4 5 4 10 0 6 -5 10 -11 10 -5 0 -7
-4 -4 -10z"/>
<path d="M302 2230 c0 -14 2 -19 5 -12 2 6 2 18 0 25 -3 6 -5 1 -5 -13z"/>
<path d="M304 2186 c-3 -8 -4 -27 -1 -43 4 -27 4 -27 6 5 0 17 6 32 11 32 6 0
10 5 10 10 0 15 -20 12 -26 -4z"/>
<path d="M358 2153 c7 -3 16 -2 19 1 4 3 -2 6 -13 5 -11 0 -14 -3 -6 -6z"/>
<path d="M320 2142 c0 -5 7 -16 16 -23 14 -12 16 -11 13 5 -4 20 -29 35 -29
18z"/>
<path d="M430 2130 c0 -11 2 -20 4 -20 2 0 6 9 9 20 3 11 1 20 -4 20 -5 0 -9
-9 -9 -20z"/>
<path d="M310 2094 c0 -8 5 -12 10 -9 6 3 10 10 10 16 0 5 -4 9 -10 9 -5 0
-10 -7 -10 -16z"/>
<path d="M355 2090 c3 -5 8 -10 11 -10 2 0 4 5 4 10 0 6 -5 10 -11 10 -5 0 -7
-4 -4 -10z"/>
<path d="M390 2084 c0 -7 -6 -14 -12 -16 -9 -3 -7 -10 7 -24 18 -18 19 -18 12
0 -5 12 -2 25 8 36 13 15 13 17 0 17 -8 0 -15 -6 -15 -13z"/>
<path d="M328 2062 c-11 -2 -18 -12 -17 -25 0 -21 1 -21 9 -2 5 12 9 15 9 6 1
-11 4 -12 12 -4 15 15 8 29 -13 25z"/>
<path d="M357 2033 c-3 -3 -1 -14 6 -24 12 -20 47 -26 47 -9 0 6 -4 10 -9 10
-5 0 -16 7 -24 15 -8 8 -17 12 -20 8z"/>
<path d="M448 2023 c6 -2 18 -2 25 0 6 3 1 5 -13 5 -14 0 -19 -2 -12 -5z"/>
<path d="M328 2003 c7 -3 16 -2 19 1 4 3 -2 6 -13 5 -11 0 -14 -3 -6 -6z"/>
<path d="M456 1995 c-9 -26 -7 -32 5 -12 6 10 9 21 6 23 -2 3 -7 -2 -11 -11z"/>
<path d="M487 1991 c3 -11 9 -18 14 -16 4 3 12 -3 18 -12 6 -10 11 -13 11 -7
0 6 -11 21 -24 33 -24 23 -25 23 -19 2z"/>
<path d="M330 1960 c0 -11 5 -20 10 -20 6 0 10 9 10 20 0 11 -4 20 -10 20 -5
0 -10 -9 -10 -20z"/>
<path d="M388 1973 c-10 -2 -18 -9 -18 -14 0 -6 10 -5 23 2 37 20 36 23 -5 12z"/>
<path d="M395 1940 c-3 -5 -1 -10 4 -10 6 0 11 5 11 10 0 6 -2 10 -4 10 -3 0
-8 -4 -11 -10z"/>
<path d="M510 1930 c0 -5 7 -7 15 -4 9 4 15 0 15 -9 0 -9 -8 -17 -17 -19 -10
-2 -13 -6 -8 -10 16 -10 48 19 42 37 -7 16 -47 21 -47 5z"/>
<path d="M345 1877 c11 -33 20 -39 20 -12 0 14 -6 27 -13 30 -10 3 -11 -1 -7
-18z"/>
<path d="M420 1872 c0 -10 6 -24 12 -30 10 -10 8 -14 -10 -18 -12 -4 -22 -10
-22 -15 0 -5 11 -3 25 3 27 12 31 23 14 34 -6 3 -9 15 -6 25 3 11 1 19 -4 19
-5 0 -9 -8 -9 -18z"/>
<path d="M376 1871 c-3 -5 2 -11 12 -13 11 -3 19 0 19 8 0 16 -23 19 -31 5z"/>
<path d="M586 1832 c-3 -5 1 -9 9 -9 8 0 15 4 15 9 0 4 -4 8 -9 8 -6 0 -12 -4
-15 -8z"/>
<path d="M360 1826 c0 -5 5 -26 12 -47 12 -43 33 -51 41 -16 6 21 6 21 -8 3
-13 -18 -15 -18 -16 -3 -2 26 -4 30 -16 52 -7 11 -13 16 -13 11z"/>
<path d="M452 1804 c-7 -8 -8 -14 -3 -14 10 0 25 19 20 25 -2 1 -10 -3 -17
-11z"/>
<path d="M620 1810 c0 -5 5 -10 11 -10 5 0 7 5 4 10 -3 6 -8 10 -11 10 -2 0
-4 -4 -4 -10z"/>
<path d="M575 1800 c-16 -7 -17 -9 -3 -9 9 -1 20 4 23 9 7 11 7 11 -20 0z"/>
<path d="M474 1789 c-8 -14 23 -16 45 -4 23 12 23 12 -8 11 -18 0 -35 -4 -37
-7z"/>
<path d="M600 1756 c0 -31 6 -34 13 -6 3 11 1 23 -4 26 -5 3 -9 -6 -9 -20z"/>
<path d="M434 1761 c3 -5 0 -11 -6 -13 -7 -3 4 -4 24 -4 43 1 46 18 4 23 -16
2 -25 0 -22 -6z"/>
<path d="M511 1754 c0 -11 3 -14 6 -6 3 7 2 16 -1 19 -3 4 -6 -2 -5 -13z"/>
<path d="M663 1744 c0 -23 1 -24 9 -10 7 12 7 21 0 28 -6 6 -9 0 -9 -18z"/>
<path d="M395 1718 c3 -7 15 -18 28 -23 12 -6 21 -18 21 -27 -1 -10 2 -16 6
-13 4 3 10 -2 14 -10 3 -8 1 -17 -3 -20 -11 -6 -26 13 -36 43 -4 13 -9 21 -12
18 -8 -8 39 -94 51 -92 6 1 17 5 24 9 7 5 12 3 12 -7 0 -9 5 -16 10 -16 12 0
13 10 1 29 -8 12 -12 12 -24 2 -10 -8 -17 -8 -22 -2 -3 6 7 13 22 17 46 10 49
12 17 13 -25 1 -34 7 -43 29 -12 28 -76 77 -66 50z"/>
<path d="M454 1714 c3 -9 6 -18 6 -20 0 -2 4 -4 9 -4 6 0 9 9 8 20 -1 11 -8
20 -15 20 -9 0 -12 -6 -8 -16z"/>
<path d="M514 1719 c-3 -6 -2 -15 3 -20 5 -5 9 -1 9 11 0 23 -2 24 -12 9z"/>
<path d="M684 1703 c-1 -13 1 -21 5 -16 3 4 10 10 14 14 4 3 2 11 -5 17 -10 8
-13 5 -14 -15z"/>
<path d="M540 1680 c-22 -6 -20 -7 15 -12 47 -6 49 -5 27 8 -9 6 -28 7 -42 4z"/>
<path d="M676 1645 c4 -8 11 -15 16 -15 6 0 5 6 -2 15 -7 8 -14 15 -16 15 -2
0 -1 -7 2 -15z"/>
<path d="M633 1623 c9 -2 23 -2 30 0 6 3 -1 5 -18 5 -16 0 -22 -2 -12 -5z"/>
<path d="M740 1607 c0 -2 6 -10 14 -16 11 -9 16 -9 22 1 4 7 4 10 -1 6 -4 -4
-14 -3 -22 3 -7 6 -13 9 -13 6z"/>
<path d="M586 1585 c13 -10 14 -14 5 -15 -9 0 -10 -4 -3 -12 5 -7 12 -22 15
-33 2 -11 4 -2 4 20 0 38 -10 54 -31 55 -6 0 -1 -7 10 -15z"/>
<path d="M675 1590 c3 -5 10 -10 16 -10 5 0 9 5 9 10 0 6 -7 10 -16 10 -8 0
-12 -4 -9 -10z"/>
<path d="M715 1590 c-3 -5 -1 -10 4 -10 6 0 11 5 11 10 0 6 -2 10 -4 10 -3 0
-8 -4 -11 -10z"/>
<path d="M753 1554 c0 -16 13 -19 21 -5 3 5 0 11 -7 14 -8 3 -14 -1 -14 -9z"/>
<path d="M553 1546 c-4 -7 -15 -16 -23 -19 -12 -4 -11 -6 3 -6 9 -1 17 -6 17
-12 0 -5 -4 -7 -10 -4 -5 3 -10 0 -10 -7 -1 -7 -10 -2 -22 12 l-21 25 8 -25
c4 -14 11 -27 15 -30 4 -3 10 -15 14 -26 5 -17 13 -21 39 -18 22 3 36 -1 45
-13 9 -13 12 -13 11 -2 -1 21 -17 57 -18 40 -1 -11 -5 -10 -20 3 -12 11 -25
15 -32 10 -9 -5 -7 -10 7 -16 18 -8 18 -8 -1 -5 -11 1 -21 11 -23 21 -3 11 0
16 7 12 12 -8 18 3 25 47 5 30 1 34 -11 13z"/>
<path d="M638 1538 c2 -11 8 -16 11 -11 3 4 10 11 14 14 4 4 -1 9 -11 11 -15
4 -18 1 -14 -14z"/>
<path d="M787 1543 c-13 -12 -7 -54 9 -60 8 -3 13 -12 10 -19 -3 -7 -1 -16 4
-19 9 -6 16 27 10 50 -1 6 -3 15 -3 22 0 7 -4 10 -8 7 -5 -2 -5 -12 -2 -21 5
-11 3 -14 -6 -8 -7 4 -11 18 -8 31 5 26 4 28 -6 17z"/>
<path d="M620 1512 c0 -19 -3 -21 -19 -12 -28 14 -35 12 -17 -5 18 -18 30 -19
44 -2 7 8 7 18 2 27 -8 12 -10 10 -10 -8z"/>
<path d="M680 1521 c0 -7 -4 -9 -10 -6 -5 3 -10 1 -10 -4 0 -6 4 -11 9 -11 13
0 25 20 17 27 -3 4 -6 1 -6 -6z"/>
<path d="M740 1502 c0 -12 19 -26 26 -19 2 2 -2 10 -11 17 -9 8 -15 8 -15 2z"/>
<path d="M833 1484 c0 -23 1 -24 9 -10 7 12 7 21 0 28 -6 6 -9 0 -9 -18z"/>
<path d="M630 1475 c-7 -9 -10 -18 -6 -22 3 -3 6 0 6 7 0 9 5 7 14 -5 13 -18
14 -18 9 8 -6 32 -7 32 -23 12z"/>
<path d="M671 1477 c-2 -21 22 -97 31 -97 5 0 6 5 3 10 -3 6 -2 10 3 10 5 0
15 -14 22 -30 7 -17 15 -29 17 -26 2 2 -3 21 -11 41 -11 26 -20 35 -31 31 -10
-4 -15 1 -15 15 0 15 5 19 15 16 8 -4 17 -2 20 4 4 5 11 7 16 4 5 -4 9 -1 9 4
0 14 -17 14 -25 0 -5 -6 -12 -4 -21 8 -13 17 -13 17 -14 -2 l-1 -20 -9 20 c-5
11 -9 16 -9 12z"/>
<path d="M845 1446 c-11 -13 -19 -46 -10 -46 6 0 27 51 23 55 -2 2 -7 -2 -13
-9z"/>
<path d="M766 1435 c4 -8 2 -15 -4 -15 -6 0 -12 6 -15 13 -2 6 -7 9 -11 5 -11
-9 26 -48 44 -47 10 0 11 2 3 6 -8 3 -11 14 -7 29 4 14 2 24 -5 24 -6 0 -8 -7
-5 -15z"/>
<path d="M546 1421 c-4 -6 -2 -11 4 -11 6 0 8 -5 4 -12 -6 -9 -3 -9 9 0 9 8
21 11 27 7 5 -3 10 0 10 8 0 7 -7 14 -15 14 -8 0 -15 -5 -15 -11 0 -6 -4 -5
-9 3 -6 9 -11 10 -15 2z"/>
<path d="M660 1418 c0 -9 5 -20 10 -23 13 -8 13 5 0 25 -8 13 -10 13 -10 -2z"/>
<path d="M577 1382 c-9 -2 -15 -7 -12 -12 3 -5 12 -7 20 -3 9 3 22 0 30 -7 10
-8 15 -9 15 -2 0 15 -31 29 -53 24z"/>
<path d="M800 1390 c-8 -26 -7 -41 2 -32 6 6 8 16 5 24 -3 7 -6 11 -7 8z"/>
<path d="M760 1364 c0 -8 5 -12 10 -9 6 3 10 10 10 16 0 5 -4 9 -10 9 -5 0
-10 -7 -10 -16z"/>
<path d="M815 1350 c-3 -5 -2 -10 4 -10 5 0 13 5 16 10 3 6 2 10 -4 10 -5 0
-13 -4 -16 -10z"/>
<path d="M903 1336 c1 -17 -4 -31 -12 -34 -8 -2 -11 0 -8 5 10 17 -10 36 -29
28 -17 -7 -16 -9 6 -15 21 -7 22 -8 5 -10 -16 -1 -14 -4 10 -12 21 -8 30 -8
33 1 2 6 7 9 12 6 4 -3 13 2 21 11 10 12 9 18 -6 32 -10 9 -15 12 -11 5 3 -6
2 -14 -3 -17 -5 -4 -12 2 -14 11 -3 10 -5 5 -4 -11z m28 -19 c-10 -9 -11 -8
-5 6 3 10 9 15 12 12 3 -3 0 -11 -7 -18z"/>
<path d="M780 1330 c0 -5 5 -10 10 -10 6 0 10 5 10 10 0 6 -4 10 -10 10 -5 0
-10 -4 -10 -10z"/>
<path d="M775 1300 c-3 -5 -13 -6 -23 -3 -15 6 -15 5 -3 -10 12 -15 11 -17 -8
-17 -11 0 -21 -4 -21 -10 0 -13 27 -13 35 -1 11 19 90 -6 104 -33 7 -12 21
-27 32 -34 17 -11 21 -8 41 33 18 36 20 47 9 58 -7 6 -12 8 -11 2 2 -5 2 -17
0 -25 -1 -11 -4 -9 -10 5 -7 14 -8 9 -4 -17 5 -31 3 -38 -11 -38 -9 0 -23 6
-30 14 -12 12 -12 15 0 20 8 3 15 0 15 -6 0 -6 2 -9 5 -6 3 3 1 16 -4 29 -7
17 -10 19 -10 7 -1 -20 -16 -24 -26 -8 -3 6 0 10 7 10 9 0 9 3 -2 10 -20 13
-33 13 -24 -1 4 -7 -2 -9 -17 -7 -29 4 -42 20 -26 30 9 6 9 8 0 8 -6 0 -14 -4
-18 -10z"/>
<path d="M818 1303 c7 -3 16 -2 19 1 4 3 -2 6 -13 5 -11 0 -14 -3 -6 -6z"/>
<path d="M961 1274 c0 -11 3 -14 6 -6 3 7 2 16 -1 19 -3 4 -6 -2 -5 -13z"/>
<path d="M990 1245 c0 -8 3 -14 8 -14 19 3 23 -2 11 -17 -12 -15 -11 -16 8
-10 16 5 25 1 37 -16 9 -12 16 -19 16 -15 0 11 -63 87 -72 87 -5 0 -8 -7 -8
-15z"/>
<path d="M748 1242 c-20 -4 -24 -17 -8 -27 6 -3 13 0 16 8 3 10 18 14 45 12
22 -2 38 0 35 3 -7 7 -64 10 -88 4z"/>
<path d="M968 1220 c-3 -22 -2 -27 8 -19 6 5 10 19 7 29 -7 27 -10 25 -15 -10z"/>
<path d="M808 1199 c-17 -18 -17 -19 1 -19 11 0 21 -4 23 -9 2 -5 12 -3 22 5
19 14 19 14 -5 15 -13 0 -18 3 -11 6 6 2 12 9 12 14 0 15 -24 9 -42 -12z"/>
<path d="M1015 1191 c-3 -6 -13 -8 -23 -5 -14 5 -15 4 -2 -5 13 -9 13 -11 -2
-11 -20 0 -24 -15 -8 -25 6 -3 10 -2 10 4 0 6 12 17 26 24 16 8 22 17 16 21
-6 3 -13 2 -17 -3z"/>
<path d="M950 1153 c0 -13 5 -23 10 -23 13 0 13 11 0 30 -8 12 -10 11 -10 -7z"/>
<path d="M1093 1121 c-1 -10 9 -29 23 -42 13 -12 24 -17 24 -10 0 6 12 0 26
-14 14 -14 29 -24 32 -21 3 3 3 7 1 9 -2 1 -27 23 -55 50 -40 38 -50 43 -51
28z m42 -31 c3 -6 -1 -7 -9 -4 -18 7 -21 14 -7 14 6 0 13 -4 16 -10z"/>
<path d="M1625 861 c-3 -5 -1 -12 5 -16 12 -7 30 2 30 16 0 12 -27 12 -35 0z"/>
<path d="M2179 990 c-21 -27 -23 -28 -36 -12 -12 16 -13 16 -6 -2 5 -15 3 -18
-8 -14 -17 7 -66 -16 -53 -24 28 -17 68 -1 102 40 19 23 32 42 29 42 -4 0 -16
-13 -28 -30z"/>
<path d="M2075 901 c2 -9 4 -18 5 -21 0 -3 5 3 11 13 6 9 14 15 19 12 5 -3 11
-1 14 4 4 5 -7 9 -23 9 -21 -1 -28 -5 -26 -17z"/>
<path d="M855 1079 c-4 -6 -13 -8 -21 -5 -11 4 -12 2 -1 -14 14 -24 32 -27 23
-4 -5 14 -4 15 8 5 12 -10 13 -9 9 8 -6 24 -9 25 -18 10z"/>
<path d="M1680 790 c0 -6 -6 -8 -12 -4 -10 6 -10 4 0 -7 9 -9 15 -10 23 -2 8
8 8 13 0 17 -6 4 -11 2 -11 -4z"/>
<path d="M58 3873 c7 -3 16 -2 19 1 4 3 -2 6 -13 5 -11 0 -14 -3 -6 -6z"/>
<path d="M30 3648 c-16 -22 -30 -48 -29 -57 0 -13 2 -12 12 3 7 11 24 33 38
49 29 34 56 32 76 -5 6 -13 27 -54 47 -91 l36 -69 -31 -38 c-32 -40 -69 -161
-69 -227 0 -59 16 -35 27 41 11 81 59 189 85 194 13 3 23 -15 43 -80 23 -76
25 -91 17 -181 -7 -91 2 -174 21 -194 14 -13 16 4 7 38 -17 59 -9 206 10 194
25 -16 -68 261 -106 313 -18 26 -47 71 -64 100 -27 44 -37 52 -61 52 -22 0
-36 -9 -59 -42z"/>
<path d="M251 3510 c14 -31 19 -36 19 -24 0 6 -7 19 -16 30 -14 18 -14 18 -3
-6z"/>
<path d="M125 3450 c-4 -6 -11 -7 -17 -4 -7 4 -8 2 -4 -5 6 -9 11 -9 22 0 14
11 18 19 10 19 -3 0 -8 -5 -11 -10z"/>
<path d="M140 3430 c-9 -6 -10 -10 -3 -10 6 0 15 5 18 10 8 12 4 12 -15 0z"/>
<path d="M160 3264 c8 -10 15 -20 16 -22 1 -2 4 1 7 5 3 5 -4 15 -16 23 -21
12 -21 12 -7 -6z"/>
<path d="M66 3013 c-6 -14 -5 -15 5 -6 7 7 10 15 7 18 -3 3 -9 -2 -12 -12z"/>
<path d="M246 2712 c-3 -5 1 -9 9 -9 8 0 12 4 9 9 -3 4 -7 8 -9 8 -2 0 -6 -4
-9 -8z"/>
<path d="M265 2671 c-3 -5 -2 -12 3 -15 5 -3 9 1 9 9 0 17 -3 19 -12 6z"/>
<path d="M295 2650 c6 -30 16 -40 12 -12 -2 12 -6 24 -10 28 -3 4 -4 -4 -2
-16z"/>
<path d="M325 2651 c-3 -5 -2 -12 3 -15 5 -3 9 1 9 9 0 17 -3 19 -12 6z"/>
<path d="M365 2650 c3 -5 8 -10 11 -10 2 0 4 5 4 10 0 6 -5 10 -11 10 -5 0 -7
-4 -4 -10z"/>
</g>
</svg>
